:SAMPLES-PER-SECOND 30
:FULLY-SPECIFIED
:DEGREES
121
root  4.95435572 39.1782235 0.9527733007 -13.19900513 -75.44799805 14.16900635
lowerback  15.21049976 1.936329961 0.6385110021
upperback  4.721930027 2.483129978 0.5485569835
thorax  -3.512789965 1.147019982 -0.224169001
lowerneck  -4.03990984 9.504199982 -1.742439985
upperneck  3.083300114 13.04520035 -6.610340118
head  2.015779972 6.320759773 -1.382879972
lclavicle  0 -9.442270133e-015 7.951389973e-016
lhumerus  -5.14854002 -11.61929989 79.60230255
lradius  2.837785583e-031 -2.101384549e-031 143.4799957
lwrist  0 -3.531125038e-031 5.471449852
lhand  -1.496451383e-031 -27.76390076 20.11240005
lfingers  90 7.125020027 -90
lthumb  89.89689403 5.08795885 91.16245106
rclavicle  0 -9.442270133e-015 7.951389973e-016
rhumerus  -28.74480057 33.70159912 -86.42710114
rradius  -1.420963996e-031 3.232600402e-031 113.7289963
rwrist  3.531125038e-031 -3.531125038e-031 -1.884610057
rhand  -7.920061211e-032 -33.2840004 9.303460121
rfingers  -90 -7.125020027 -90
rthumb  -92.93752616 -24.25625642 -97.11982154
rfemur  -15.40690041 22.69589996 -0.9538450241
rtibia  -0 0 57.61149979
rfoot  -4.505676044e-032 -11.58370018 2.125050068
rtoes  5.373923086 19.29304026 -105.8922705
lfemur  -26.35499954 5.458749771 -2.316319942
ltibia  -0 0 63.68840027
lfoot  -0 4.636610031 -11.91409969
ltoes  -4.250644065 -19.5611806 -102.515957
122
root  4.870666669 39.17999868 1.082966647 -14.80999756 -75.1989975 15.68200684
lowerback  15.17249966 1.733950019 0.2683889866
upperback  4.651329994 2.165689945 0.52818501
thorax  -3.582190037 0.9916319847 0.01937180012
lowerneck  -4.03263998 9.611149788 -1.555680037
upperneck  3.108160019 13.18570042 -6.71310997
head  2.048919916 6.389689922 -1.438230038
lclavicle  0 -9.442270133e-015 7.951389973e-016
lhumerus  -5.175320148 -11.62020016 79.30110168
lradius  2.842729328e-031 -2.094691863e-031 143.6150055
lwrist  -7.062250077e-031 -1.765562519e-031 5.38737011
lhand  -1.496451383e-031 -27.76390076 20.11240005
lfingers  90 7.125020027 -90
lthumb  89.89689403 5.08795885 91.16245106
rclavicle  0 -9.442270133e-015 7.951389973e-016
rhumerus  -29.4843998 33.24229813 -86.40499878
rradius  -1.451535912e-031 3.218988588e-031 114.2720032
rwrist  3.531125038e-031 -0 -2.305119991
rhand  -7.920061211e-032 -33.2840004 9.303460121
rfingers  -90 -7.125020027 -90
rthumb  -92.93752616 -24.25625642 -97.11982154
rfemur  -15.21640015 23.0007 -1.322610021
rtibia  -0 0 56.73880005
rfoot  -4.515929505e-032 -12.2020998 3.085949898
rtoes  5.373923086 19.29304026 -105.8922705
lfemur  -26.49609947 4.730899811 -2.361030102
ltibia  -0 0 63.50350189
lfoot  -0 2.214649916 -9.381210327
ltoes  -4.250644065 -19.5611806 -102.515957
123
root  4.781066714 39.16333416 1.193159959 -16.41000366 -75.34400177 17.01100159
lowerback  15.29329967 1.707720041 -0.02402110025
upperback  4.617670059 2.085760117 0.4788720012
thorax  -3.691240072 0.9520739913 0.143039003
lowerneck  -3.996330023 9.672730446 -1.386479974
upperneck  3.136499882 13.25979996 -6.687139988
head  2.064510107 6.429419994 -1.454839945
lclavicle  0 -9.442270133e-015 7.951389973e-016
lhumerus  -5.087739944 -11.69909954 78.9618988
lradius  2.841558515e-031 -2.096279858e-031 143.5829926
lwrist  -1.412450015e-030 1.765562519e-031 5.216660023
lhand  -1.496451383e-031 -27.76390076 20.11240005
lfingers  90 7.125020027 -90
lthumb  89.89689403 5.08795885 91.16245106
rclavicle  0 -9.442270133e-015 7.951389973e-016
rhumerus  -30.22459984 32.57780075 -86.35150146
rradius  -1.482591996e-031 3.204803428e-031 114.8259964
rwrist  7.062250077e-031 -3.531125038e-031 -2.513119936
rhand  -7.920061211e-032 -33.2840004 9.303460121
rfingers  -90 -7.125020027 -90
rthumb  -92.93752616 -24.25625642 -97.11982154
rfemur  -14.90939999 23.80190086 -1.429949999
rtibia  -0 0 55.57389832
rfoot  -4.517009694e-032 -12.2652998 3.761320114
rtoes  5.373923086 19.29304026 -105.8922705
lfemur  -26.28980064 4.445419788 -2.178839922
ltibia  -0 0 63.22259903
lfoot  8.827860122e-032 -0.1880079955 -6.89620018
ltoes  -4.250644065 -19.5611806 -102.515957
124
root  4.677155637 39.11711024 1.313184472 -16.26499939 -74.90200043 16.78900146
lowerback  14.98550034 1.413290024 0.02030419931
upperback  4.552299976 1.712249994 0.4879049957
thorax  -3.592030048 0.7708269954 0.2009209991
lowerneck  -3.990859985 9.754380226 -1.339190006
upperneck  3.243319988 13.36900043 -6.579319954
head  2.09645009 6.483699799 -1.422219992
lclavicle  0 -9.442270133e-015 7.951389973e-016
lhumerus  -5.036570072 -11.66880035 78.68930054
lradius  2.834959115e-031 -2.105196155e-031 143.4029999
lwrist  -1.059337512e-030 -3.531125038e-031 4.977570057
lhand  -1.496451383e-031 -27.76390076 20.11240005
lfingers  90 7.125020027 -90
lthumb  89.89689403 5.08795885 91.16245106
rclavicle  0 -9.442270133e-015 7.951389973e-016
rhumerus  -30.94630051 32.00320053 -86.23040009
rradius  -1.517684971e-031 3.188334419e-031 115.4550018
rwrist  3.531125038e-031 -0 -2.677740097
rhand  -7.920061211e-032 -33.2840004 9.303460121
rfingers  -90 -7.125020027 -90
rthumb  -92.93752616 -24.25625642 -97.11982154
rfemur  -14.45259953 24.09539986 -1.171519995
rtibia  -0 0 54.51509857
rfoot  -4.518827999e-032 -12.37090015 3.899590015
rtoes  5.373923086 19.29304026 -105.8922705
lfemur  -26.61849976 3.690220118 -1.782400012
ltibia  -0 0 62.83509827
lfoot  4.416942986e-032 -2.124720097 -4.521780014
ltoes  -4.250644065 -19.5611806 -102.515957
